<svg width="1758" height="1760" xmlns="http://www.w3.org/2000/svg" xmlns:xlink="http://www.w3.org/1999/xlink" xml:space="preserve" overflow="hidden"><defs><filter id="fx0" x="-10%" y="-10%" width="120%" height="120%" filterUnits="userSpaceOnUse" primitiveUnits="userSpaceOnUse"><feComponentTransfer color-interpolation-filters="sRGB"><feFuncR type="discrete" tableValues="0 0"/><feFuncG type="discrete" tableValues="0 0"/><feFuncB type="discrete" tableValues="0 0"/><feFuncA type="linear" slope="0.4" intercept="0"/></feComponentTransfer><feGaussianBlur stdDeviation="6.11111 6.11111"/></filter><clipPath id="clip1"><rect x="2476" y="313" width="1758" height="1760"/></clipPath><linearGradient x1="3500.19" y1="567.391" x2="3418.57" y2="677.068" gradientUnits="userSpaceOnUse" spreadMethod="reflect" id="fill2"><stop offset="0" stop-color="#FFC000"/><stop offset="0.16" stop-color="#FFC000"/><stop offset="1" stop-color="#FFFF00"/></linearGradient></defs><g clip-path="url(#clip1)" transform="translate(-2476 -313)"><rect x="2476" y="313" width="1758" height="1760" fill="#FFFFFF" fill-opacity="0"/><path d="M2742 582.43C2742 469.777 2813.02 414 2925.69 414L3817.86 414C3930.53 414 3966 510.402 3966 623.056L3966 1769.02C3966 1881.68 3940.69 1973 3828.02 1973L2874.9 1973C2762.23 1973 2742 1881.68 2742 1769.02L2742 582.43Z" stroke="#999999" stroke-width="13.75" stroke-miterlimit="8" stroke-opacity="0.6" fill="#FFFFFF" fill-rule="evenodd"/><path d="M2753 603.405C2753 492.775 2823.09 438 2934.29 438L3814.8 438C3925.99 438 3961 532.671 3961 643.301L3961 1768.69C3961 1879.32 3936.02 1969 3824.82 1969L2884.16 1969C2772.97 1969 2753 1879.32 2753 1768.69L2753 603.405Z" fill="#F5F5F5" fill-rule="evenodd"/><path d="M2750 1767 3958 1767C3958 1877.46 3933.02 1967 3821.82 1967L2881.16 1967C2769.97 1967 2750 1877.46 2750 1767Z" fill="#F9F9F9" fill-rule="evenodd"/><rect x="2752" y="1199" width="1208" height="568" fill="#F9F9F9"/><g filter="url(#fx0)" transform="translate(3751 422)"><g><path d="M43.0653 210.67C18.3008 217.565 17.8946 115.316 0 20.8411 113.894 17.9079 176.891-16.5668 179 9.98583 179 120.82 154.064 210.67 43.0653 210.67Z" fill="#FFFFFF" fill-rule="evenodd" transform="matrix(1 0 0 -1 20.2771 230.723)"/></g></g><path d="M43.0653 210.67C18.3008 217.565 17.8946 115.316 0 20.8411 113.894 17.9079 176.891-16.5668 179 9.98583 179 120.82 154.064 210.67 43.0653 210.67Z" fill="#FFFFFF" fill-rule="evenodd" transform="matrix(1 0 0 -1 3781 643)"/><path d="M3146.89 577.056C3146.89 537.111 3179.26 504.729 3219.18 504.729L3492.6 504.729C3532.52 504.729 3564.89 537.111 3564.89 577.056L3564.89 762.406C3564.89 802.343 3532.52 834.729 3492.6 834.729L3219.18 834.729C3179.26 834.729 3146.89 802.343 3146.89 762.406Z" fill="#000000" fill-rule="evenodd" fill-opacity="0.101961"/><path d="M3150.89 756.73 3561.89 756.73C3561.89 797.598 3531.22 830.73 3493.38 830.73L3219.39 830.73C3181.56 830.73 3150.89 797.598 3150.89 756.73Z" fill="#9E439E" fill-rule="evenodd"/><path d="M3150.89 573.731C3150.89 537.832 3181.56 508.731 3219.39 508.731L3493.38 508.731C3531.22 508.731 3561.89 537.832 3561.89 573.731L3150.89 573.731Z" fill="#F167F1" fill-rule="evenodd"/><path d="M3150.89 570.459C3150.89 542.656 3180.45 513.729 3215.49 513.729L3493.83 513.729C3528.88 513.729 3561.89 542.656 3561.89 570.459L3561.89 771.825C3561.89 799.629 3528.88 826.729 3493.83 826.729L3215.79 826.581C3180.74 826.581 3150.89 799.629 3150.89 771.825L3150.89 570.459Z" fill="#BD4FBD" fill-rule="evenodd"/><path d="M3150.89 568.731C3150.89 537.803 3181.56 512.731 3219.39 512.731L3493.38 512.731C3531.22 512.731 3561.89 537.803 3561.89 568.731L3150.89 568.731Z" fill="#AC48AC" fill-rule="evenodd"/><path d="M3150.89 568.729 3561.89 568.729 3561.89 659.73 3150.89 659.73Z" fill="#AC48AC" fill-rule="evenodd"/><path d="M0.19698 0.0716065 177.197 168.072" stroke="#996633" stroke-width="55.3555" stroke-miterlimit="8" fill="none" fill-rule="evenodd" transform="matrix(-1 1.22465e-16 1.22465e-16 1 3460.5 618.5)"/><path d="M0.196739 0.0724552 173.197 165.072" stroke="#996633" stroke-width="54.367" stroke-miterlimit="8" fill="none" fill-rule="evenodd" transform="matrix(-1 1.22465e-16 1.22465e-16 1 3458 619)"/><path d="M0.198743 0.0745666 176.199 169.075" stroke="#663300" stroke-width="27.6776" stroke-miterlimit="8" fill="none" fill-rule="evenodd" transform="matrix(-1 1.22465e-16 1.22465e-16 1 3468 625)"/><path d="M0.199982 0.0749785 173.2 165.075" stroke="#663300" stroke-width="27.1835" stroke-miterlimit="8" fill="none" fill-rule="evenodd" transform="matrix(-1 1.22465e-16 1.22465e-16 1 3466.5 627.5)"/><path d="M3432.85 573.544 3462.98 596.732 3495.88 573.684 3481.6 611.063 3511.73 634.251 3472.77 634.165 3458.49 671.544 3448.69 634.111 3409.73 634.025 3442.64 610.977Z" stroke="#B48900" stroke-width="4.62123" stroke-miterlimit="8" fill="#FF0000" fill-rule="evenodd"/><path d="M3432.04 574.23 3461.59 596.944 3493.84 574.366 3479.84 610.983 3509.38 633.699 3471.19 633.614 3457.18 670.23 3447.58 633.562 3409.38 633.478 3441.65 610.899Z" stroke="#B48900" stroke-width="4.53064" stroke-miterlimit="8" fill="url(#fill2)" fill-rule="evenodd"/><path d="M3220.58 552.724C3220.83 551.77 3221.93 552.065 3222.64 552.177 3224.72 553.281 3226.79 554.418 3229.07 555.059 3232.74 556.953 3236.61 558.394 3240.45 559.891 3242.03 560.588 3243.5 561.551 3245.16 562.061 3247.55 562.749 3249.59 564.292 3251.97 564.985 3254.1 565.654 3255.93 567.015 3258.07 567.665 3260.32 568.334 3262.27 569.766 3264.52 570.472 3266.11 571.005 3267.59 571.843 3269.19 572.347 3271.43 573.068 3273.38 574.481 3275.63 575.159 3277.96 575.912 3280.06 577.208 3282.17 578.415 3282.15 583.28 3282.16 588.149 3282.16 593.014 3280.03 594.375 3277.55 594.927 3275.3 596.036 3272.65 596.807 3270.36 598.421 3267.74 599.245 3265.74 599.881 3264.01 601.149 3262.01 601.794 3259.29 602.636 3256.92 604.343 3254.16 605.092 3251.03 606.71 3247.75 607.926 3244.5 609.255 3242.36 609.877 3240.51 611.206 3238.4 611.949 3235.56 612.805 3233.08 614.583 3230.2 615.374 3227.61 616.758 3224.87 617.759 3222.18 618.91 3221.78 619.069 3220.98 619.205 3220.88 618.601 3219.65 615.505 3218.83 612.253 3217.69 609.124 3217.3 607.781 3216.52 606.476 3216.74 605.026 3219.46 603.202 3222.76 602.669 3225.56 601.003 3228.97 599.595 3232.37 598.131 3235.9 597.037 3242.97 593.655 3250.38 591.11 3257.54 587.957 3259.32 587.158 3261.28 586.783 3262.87 585.572 3260.19 583.691 3256.9 582.947 3253.95 581.572 3242.68 576.96 3231.37 572.432 3220.11 567.796 3218.65 567.366 3217.13 566.847 3216.17 565.565 3217.92 561.392 3218.97 556.949 3220.58 552.724Z" fill="#FFFFFF" fill-rule="evenodd"/><path d="M3282.68 638.05C3307.01 638.059 3331.35 638.064 3355.67 638.045 3355.87 638.899 3356.21 639.734 3356.16 640.626 3356.16 643.934 3356.16 647.237 3356.16 650.546 3356.2 651.264 3356.01 651.958 3355.8 652.638 3355.11 652.845 3354.41 653.075 3353.68 653.042 3330.54 653.032 3307.4 653.042 3284.26 653.037 3283.37 653.061 3281.96 652.657 3282.19 651.508 3282.19 647.725 3282.2 643.943 3282.19 640.157 3282.12 639.406 3282.42 638.73 3282.68 638.05Z" fill="#FFFFFF" fill-rule="evenodd"/><path d="M3221.52 553.704C3221.76 552.779 3222.84 553.064 3223.54 553.173 3225.59 554.244 3227.64 555.347 3229.88 555.969 3233.49 557.807 3237.3 559.205 3241.08 560.657 3242.64 561.333 3244.09 562.268 3245.72 562.762 3248.08 563.429 3250.08 564.927 3252.43 565.599 3254.52 566.248 3256.33 567.568 3258.43 568.199 3260.66 568.848 3262.58 570.237 3264.79 570.922 3266.36 571.439 3267.81 572.252 3269.39 572.742 3271.59 573.44 3273.51 574.811 3275.73 575.469 3278.02 576.2 3280.09 577.457 3282.17 578.627 3282.15 583.347 3282.16 588.071 3282.16 592.791 3280.07 594.112 3277.62 594.647 3275.4 595.723 3272.8 596.471 3270.54 598.037 3267.96 598.836 3265.99 599.453 3264.28 600.683 3262.32 601.309 3259.64 602.126 3257.3 603.782 3254.58 604.508 3251.51 606.078 3248.27 607.259 3245.08 608.547 3242.96 609.151 3241.14 610.44 3239.07 611.161 3236.26 611.992 3233.83 613.716 3230.99 614.483 3228.44 615.826 3225.74 616.798 3223.09 617.914 3222.7 618.068 3221.9 618.2 3221.81 617.615 3220.6 614.61 3219.79 611.456 3218.67 608.42 3218.28 607.118 3217.51 605.852 3217.73 604.445 3220.41 602.675 3223.66 602.158 3226.42 600.542 3229.78 599.176 3233.12 597.756 3236.6 596.694 3243.56 593.413 3250.86 590.944 3257.92 587.885 3259.66 587.109 3261.6 586.746 3263.16 585.571 3260.52 583.747 3257.28 583.025 3254.38 581.691 3243.27 577.216 3232.14 572.823 3221.05 568.326 3219.61 567.909 3218.12 567.405 3217.17 566.162 3218.89 562.113 3219.93 557.802 3221.52 553.704Z" fill="#FFFFFF" fill-rule="evenodd"/><path d="M3282.67 638.048C3306.68 638.056 3330.68 638.061 3354.68 638.043 3354.88 638.84 3355.22 639.62 3355.16 640.452 3355.16 643.54 3355.16 646.623 3355.16 649.711 3355.2 650.381 3355.01 651.029 3354.81 651.664 3354.12 651.857 3353.43 652.071 3352.71 652.041 3329.89 652.032 3307.06 652.041 3284.23 652.037 3283.36 652.058 3281.96 651.682 3282.2 650.609 3282.2 647.078 3282.2 643.549 3282.2 640.014 3282.12 639.314 3282.42 638.683 3282.67 638.048Z" fill="#FFFFFF" fill-rule="evenodd"/><path d="M2889.13 1006.24C2893.81 994.782 2908.26 994.826 2918.73 994.498 2941.42 995.57 2965.28 990.891 2986.95 999.592 2988.61 1003.29 2990.46 1006.94 2991.27 1010.94 2998.11 1043.43 3006.09 1075.66 3013.17 1108.08 3013.98 1110.97 3014.74 1113.86 3015.46 1116.78 3018.99 1132.86 3022.15 1149.04 3026.32 1164.97 3028.63 1175.71 3030.89 1186.45 3033.97 1197.01 3036.87 1216.49 3043.23 1235.27 3046.04 1254.75 3028.26 1256.32 3010.3 1256.48 2992.55 1254.25 2979.8 1252.83 2966.96 1253.52 2954.19 1253.85 2953.62 1254.95 2952.53 1257.09 2951.97 1258.18 2947.52 1247.8 2946.04 1236.51 2942.49 1225.84 2926.42 1163.25 2909.99 1100.78 2893.99 1038.18 2891.41 1027.73 2888.52 1017.13 2889.13 1006.24Z" fill="#008BBC" fill-rule="evenodd"/><path d="M3166.78 1003.87C3173.37 997.421 3183.18 997.246 3191.71 995.546 3209.14 995.067 3226.6 995.067 3244.05 995.503 3250.4 996.374 3256.97 997.181 3262.87 999.861 3268.81 1002.54 3272.08 1008.73 3273.22 1014.9 3283.33 1055.56 3293.54 1096.2 3303.59 1136.88 3308.54 1157.39 3314.24 1177.74 3319.13 1198.27 3320.22 1202.24 3321.25 1206.2 3322.38 1210.15 3326.6 1226.1 3328.8 1242.57 3334.04 1258.24L3331.18 1258.2C3307.19 1257.35 3283.22 1258.2 3259.22 1257.72 3253.48 1257.85 3247.17 1257.11 3242.24 1260.7L3241.32 1261.18C3231.73 1226.42 3223.63 1191.25 3214.11 1156.47 3213.92 1154.99 3213.55 1152.01 3213.37 1150.53 3212.13 1153.08 3211.39 1155.76 3211.12 1158.61 3208.83 1168.05 3205.77 1177.35 3204.66 1187.05 3197.89 1210.26 3193.04 1234.01 3187.35 1257.5L3186.67 1257.43C3165.05 1254.47 3143.22 1256.24 3121.5 1255.58 3115.89 1255.78 3111.41 1252.07 3107.04 1249.11 3108.55 1232.2 3115.03 1216.18 3117.81 1199.47 3132.81 1138.54 3147.09 1077.46 3161.8 1016.47 3162.81 1012.04 3165.05 1008.03 3166.78 1003.87Z" fill="#008BBC" fill-rule="evenodd"/><path d="M3450.55 1004C3456.03 998.297 3464.37 997.534 3471.69 995.704 3486.89 994.855 3502.16 995.29 3517.38 995.312 3524.7 995.072 3531.73 997.403 3538.52 999.886 3545.84 1013.33 3540.01 1028.77 3536.68 1042.5 3518.48 1111.51 3500.32 1180.52 3481.88 1249.46 3480.93 1252.84 3480.43 1256.28 3479.99 1259.74L3478.74 1259.77C3449.85 1260.68 3420.87 1258.5 3392.04 1261.18 3392.26 1259 3392.48 1256.82 3392.7 1254.65 3394.98 1241.4 3397.76 1228.2 3400.94 1215.15 3401.48 1212.19 3402.14 1209.27 3403.19 1206.44 3404.35 1196.79 3406.96 1187.27 3410.01 1178.05 3410.18 1175.48 3410.36 1172.91 3410.53 1170.36 3414.67 1162.54 3414.69 1153.5 3417.21 1145.18 3428.71 1098.22 3438.31 1050.77 3450.55 1004Z" fill="#008BBC" fill-rule="evenodd"/><path d="M3613.42 1003.6C3621.36 996.999 3632.18 996.934 3641.91 995.474 3660.8 995.278 3680.02 993.993 3698.46 998.959 3704.18 1000.57 3710.02 1005.41 3709.91 1011.81 3710.07 1095.18 3709.8 1178.54 3710.04 1261.9L3709.04 1261.93C3676.69 1262.43 3644.31 1262.01 3611.94 1262.14L3610.15 1262.14C3609.89 1180.96 3610.28 1099.75 3610.06 1018.54 3609.91 1013.4 3610.8 1008.09 3613.42 1003.6Z" fill="#008BBC" fill-rule="evenodd"/><path d="M3107.33 1249.18C3111.7 1252.15 3116.18 1255.86 3121.8 1255.66 3143.54 1256.32 3165.4 1254.55 3187.04 1257.52 3171.83 1321.97 3156.29 1386.34 3140.9 1450.75 3139.22 1459.44 3135.46 1468.65 3127 1472.75 3113.66 1478.36 3098.93 1477.68 3084.77 1478.14 3067.92 1478.19 3051.04 1478.4 3034.25 1477.07 3026.32 1475.74 3017.58 1474.93 3011.37 1469.24 3005.33 1464.04 3003.67 1455.88 3001.62 1448.57 2985.14 1385.1 2968.55 1321.67 2952.04 1258.2 2952.61 1257.1 2953.7 1254.97 2954.27 1253.87 2967.08 1253.55 2979.96 1252.85 2992.74 1254.27 3010.54 1256.49 3028.55 1256.34 3046.39 1254.77 3056.02 1297.27 3065.55 1339.81 3075.67 1382.19 3086.21 1337.86 3097.31 1293.64 3107.33 1249.18Z" fill="#00B0F0" fill-rule="evenodd"/><path d="M3391.71 1254.18 3393.04 1254.33C3392.83 1256.52 3392.61 1258.71 3392.39 1260.9 3421.2 1258.21 3450.17 1260.39 3479.04 1259.47 3462.3 1323.14 3445.48 1386.79 3428.75 1450.45 3426.76 1457.85 3423.92 1465.76 3417.28 1470.25 3411.46 1474.56 3404.06 1475.28 3397.23 1476.98 3373.1 1478.56 3348.89 1478.47 3324.76 1477.36 3316.18 1476.44 3307.02 1475.41 3299.76 1470.4 3293.8 1466.14 3291.66 1458.72 3289.9 1452.01 3274.69 1391.42 3259.32 1330.88 3244.01 1270.34 3243.2 1267.02 3242.55 1263.67 3242.04 1260.31 3246.99 1256.7 3253.32 1257.44 3259.08 1257.31 3283.14 1257.79 3307.18 1256.94 3331.24 1257.79L3333.69 1257.92C3334.65 1266.5 3337.3 1274.74 3339.32 1283.12 3347.51 1316.14 3355.56 1349.21 3364.01 1382.17 3373.63 1344.53 3381.46 1306.41 3390.57 1268.64 3391.88 1263.91 3391.84 1259.02 3391.71 1254.18Z" fill="#00B0F0" fill-rule="evenodd"/><path d="M3611.05 1262.4C3643.55 1262.27 3676.05 1262.68 3708.53 1262.18 3708.39 1306.45 3708.88 1350.74 3708.28 1395.01 3711.35 1395.97 3714.5 1396.69 3717.77 1396.49 3764.52 1396.36 3811.25 1396.47 3858.01 1396.45 3864.75 1395.49 3869.75 1401.51 3871.19 1407.47 3874.56 1420.96 3874.26 1435.02 3873.69 1448.79 3872.84 1458.22 3871.66 1468.37 3864.73 1475.49 3828.16 1476.86 3791.52 1475.7 3754.91 1476.1 3715.56 1475.99 3676.18 1476.27 3636.83 1475.97 3622.97 1476.16 3610.72 1463.7 3611.29 1449.84 3610.77 1387.37 3611.27 1324.87 3611.05 1262.4Z" fill="#00B0F0" fill-rule="evenodd"/></g></svg>